# xmcd
#
# Track frame offsets:
#	150
#	18435
#	34566
#	53234
#	61387
#	75456
#	89379
#	104427
#	118262
#	129284
#	150564
#	165206
#	182597
#	195452
#	214725
#	228118
#	261239
#	273286
#
# Disc length: 3697 seconds
#
# Revision: 1
# Processed by: cddbd v1.5.2PL0 Copyright (c) Steve Scherf et al.
# Submitted via: audiograbber 1.83.01
#
DISCID=e10e6f12
DTITLE=Rawhide - The Dark Is Barking
DYEAR=2012
DGENRE=Bluegrass
TTITLE0=I Was Made For Loving You
TTITLE1=One Way Track
TTITLE2=Down Under
TTITLE3=Teenager In Love
TTITLE4=Raining In LA
TTITLE5=Sugar Loaf Mountain
TTITLE6=Listen To The Music
TTITLE7=Jesus Gave Me Water
TTITLE8=Looking Out My Backdoor
TTITLE9=Wait A Minute
TTITLE10=Cardey's Breakdown
TTITLE11=I Could Love A Million Girls
TTITLE12=Monday Monday
TTITLE13=Blues For Dostojewski
TTITLE14=Something
TTITLE15=Matthew And Son
TTITLE16=Leaving Town
TTITLE17=Looney Tune
EXTD=
EXTT0=
EXTT1=
EXTT2=
EXTT3=
EXTT4=
EXTT5=
EXTT6=
EXTT7=
EXTT8=
EXTT9=
EXTT10=
EXTT11=
EXTT12=
EXTT13=
EXTT14=
EXTT15=
EXTT16=
EXTT17=
PLAYORDER=
